<?xml version="1.0" encoding="UTF-8"?>
<!-- This file is generated by npm run build:icons -->
<svg xmlns="http://www.w3.org/2000/svg" xmlns:xlink="http://www.w3.org/1999/xlink" width="0" height="0">
<defs>
<symbol viewBox="0 0 15 15" fill="none" id="chevron-down">
  <path     fill-rule="evenodd"
    clip-rule="evenodd"
    d="M3.13523 6.15803C3.3241 5.95657 3.64052 5.94637 3.84197 6.13523L7.5 9.56464L11.158 6.13523C11.3595 5.94637 11.6759 5.95657 11.8648 6.15803C12.0536 6.35949 12.0434 6.67591 11.842 6.86477L7.84197 10.6148C7.64964 10.7951 7.35036 10.7951 7.15803 10.6148L3.15803 6.86477C2.95657 6.67591 2.94637 6.35949 3.13523 6.15803Z"
    fill="currentColor"
  ></path>
</symbol>
<symbol viewBox="0 0 15 15" fill="none" id="hamburger-menu">
  <path     fill-rule="evenodd"
    clip-rule="evenodd"
    d="M1.5 3C1.22386 3 1 3.22386 1 3.5C1 3.77614 1.22386 4 1.5 4H13.5C13.7761 4 14 3.77614 14 3.5C14 3.22386 13.7761 3 13.5 3H1.5ZM1 7.5C1 7.22386 1.22386 7 1.5 7H13.5C13.7761 7 14 7.22386 14 7.5C14 7.77614 13.7761 8 13.5 8H1.5C1.22386 8 1 7.77614 1 7.5ZM1 11.5C1 11.2239 1.22386 11 1.5 11H13.5C13.7761 11 14 11.2239 14 11.5C14 11.7761 13.7761 12 13.5 12H1.5C1.22386 12 1 11.7761 1 11.5Z"
    fill="currentColor"
  ></path>
</symbol>
</defs>
</svg>
