<svg xmlns="http://www.w3.org/2000/svg" width="0" height="0"><defs><symbol id="chevron-down" fill="none" viewBox="0 0 15 15"><path fill="currentColor" fill-rule="evenodd" d="M3.13523 6.15803c.18887-.20146.50529-.21166.70674-.0228L7.5 9.56464l3.658-3.42941c.2015-.18886.5179-.17866.7068.0228.1888.20146.1786.51788-.0228.70674L7.84197 10.6148c-.19233.1803-.49161.1803-.68394 0l-4-3.75003c-.20146-.18886-.21166-.50528-.0228-.70674" clip-rule="evenodd"/></symbol><symbol id="hamburger-menu" fill="none" viewBox="0 0 15 15"><path fill="currentColor" fill-rule="evenodd" d="M1.5 3c-.27614 0-.5.22386-.5.5s.22386.5.5.5h12c.2761 0 .5-.22386.5-.5s-.2239-.5-.5-.5zM1 7.5c0-.27614.22386-.5.5-.5h12c.2761 0 .5.22386.5.5s-.2239.5-.5.5h-12c-.27614 0-.5-.22386-.5-.5m0 4c0-.2761.22386-.5.5-.5h12c.2761 0 .5.2239.5.5s-.2239.5-.5.5h-12c-.27614 0-.5-.2239-.5-.5" clip-rule="evenodd"/></symbol></defs></svg>